<svg width="24px" height="24px" viewBox="0 0 10 10" xmlns="http://www.w3.org/2000/svg">
    <path d="M9.81857 1.05751C10.0605 0.815589 10.0605 0.423359 9.81857 0.18144C9.57667 -0.0604799 9.18447 -0.0604799 8.94256 0.18144L4.99984 4.12443L1.05744 0.181769C0.815535 -0.0601512 0.423332 -0.0601512 0.181428 0.181768C-0.060476 0.423688 -0.0604759 0.815918 0.181428 1.05784L4.12383 5.00049L0.182451 8.94213C-0.059453 9.18405 -0.0594532 9.57628 0.182451 9.8182C0.424354 10.0601 0.816558 10.0601 1.05846 9.8182L4.99984 5.87656L8.94154 9.81853C9.18344 10.0604 9.57565 10.0604 9.81755 9.81853C10.0595 9.57661 10.0595 9.18438 9.81755 8.94246L5.87585 5.00049L9.81857 1.05751Z"
          fill="#747B8B"/>
</svg>